<svg viewBox="0 0 64 64" fill="none" xmlns="http://www.w3.org/2000/svg">
  <!-- Body -->
  <ellipse cx="32" cy="38" rx="20" ry="16" fill="#50B480" />
  <!-- Head -->
  <ellipse cx="32" cy="24" rx="16" ry="12" fill="#50B480" />
  <!-- Left eye bump -->
  <circle cx="22" cy="16" r="8" fill="#50B480" />
  <!-- Right eye bump -->
  <circle cx="42" cy="16" r="8" fill="#50B480" />
  <!-- Left eye -->
  <circle cx="22" cy="15" r="5" fill="#121212" />
  <circle cx="23" cy="14" r="2" fill="#7FD0B2" />
  <!-- Right eye -->
  <circle cx="42" cy="15" r="5" fill="#121212" />
  <circle cx="43" cy="14" r="2" fill="#7FD0B2" />
  <!-- Spots -->
  <circle cx="26" cy="32" r="3" fill="#121212" />
  <circle cx="38" cy="30" r="2.5" fill="#121212" />
  <circle cx="32" cy="42" r="3" fill="#121212" />
  <circle cx="24" cy="44" r="2" fill="#121212" />
  <circle cx="40" cy="44" r="2" fill="#121212" />
  <!-- Front legs -->
  <ellipse cx="16" cy="48" rx="6" ry="4" fill="#50B480" />
  <ellipse cx="48" cy="48" rx="6" ry="4" fill="#50B480" />
  <!-- Back legs -->
  <ellipse cx="12" cy="42" rx="5" ry="8" fill="#50B480" transform="rotate(-20 12 42)" />
  <ellipse cx="52" cy="42" rx="5" ry="8" fill="#50B480" transform="rotate(20 52 42)" />
  <!-- Mouth line -->
  <path d="M24 28 Q32 32 40 28" stroke="#121212" stroke-width="1.5" fill="none" />
</svg>
